<?xml version="1.0" encoding="UTF-8"?><svg id="a" xmlns="http://www.w3.org/2000/svg" viewBox="0 0 1017.838 282.585"><defs><style>.b{fill:#234e77;}.c{fill:#4d4d4d;}</style></defs><path class="b" d="M32.144,81.291L123.57,28.253c.007-.004,.015-.004,.021,0l92.253,53.517c.007,.004,.015,.004,.021,0l24.354-14.074c.014-.008,.014-.028,0-.036L123.591,.003c-.007-.004-.015-.004-.021,0L7.978,67.059c-.014,.008-.014,.028,0,.036l24.144,14.195c.007,.004,.015,.004,.021,0ZM116.401,254.344L24.45,201.002c-.006-.004-.01-.011-.01-.018V93.416c0-.007-.004-.014-.01-.018L.032,79.054c-.014-.008-.032,.002-.032,.018V215.056c0,.008,.004,.014,.01,.018l116.369,67.507c.014,.008,.032-.002,.032-.018v-28.202c0-.008-.004-.014-.01-.018ZM222.72,94.379v106.605c0,.008-.004,.014-.01,.018l-91.95,53.341c-.006,.004-.01,.011-.01,.018v28.202c0,.016,.018,.026,.032,.018l116.369-67.507c.006-.004,.01-.011,.01-.018V80.28c0-.016-.018-.026-.032-.018l-24.398,14.099c-.007,.004-.011,.011-.011,.018Z"/><g><polygon class="b" points="106.85 175.19 97.521 195.358 149.472 195.358 140.143 175.19 106.85 175.19"/><polygon class="b" points="134.793 70.129 112.708 70.129 54.211 195.358 76.47 195.358 85.795 175.19 85.79 175.19 123.796 93.871 170.524 195.358 193.381 195.358 134.793 70.129"/></g><g><polygon class="c" points="478.859 69.775 458.678 69.775 458.678 194.998 544.191 195.002 544.191 175.898 478.859 175.898 478.859 69.775"/><polygon class="c" points="362.75 69.773 304.253 195.002 326.512 195.002 335.837 174.834 335.832 174.834 373.838 93.515 420.566 195.002 443.423 195.002 384.835 69.773 362.75 69.773"/><polygon class="c" points="622.639 143.615 576.429 69.775 559.445 69.775 559.445 194.998 579.617 194.998 579.617 110.774 622.62 178.925 665.747 110.751 665.747 194.998 685.832 194.998 685.832 69.775 668.849 69.775 622.639 143.615"/><polygon class="c" points="356.892 174.834 347.563 195.002 398.416 195.002 389.087 174.834 356.892 174.834"/><polygon class="c" points="995.244 68.999 948.04 141.988 948.04 194.226 968.652 194.226 968.652 144.387 1017.838 68.999 995.244 68.999"/><polygon class="c" points="927.721 69.002 907.363 69 937.198 123.366 948.328 106.191 927.721 69.002"/><polygon class="c" points="721.235 138.186 779.536 138.186 779.536 119.078 721.238 119.078 721.238 88.203 795.56 88.203 795.56 69.002 701.056 69.002 701.056 194.224 797.61 194.224 797.61 175.119 721.235 175.117 721.235 138.186"/><polygon class="c" points="812.857 194.226 833.037 194.226 833.037 140.237 890.36 140.237 890.36 121.026 833.037 121.026 833.037 88.209 895.161 88.362 895.161 69 812.857 69 812.857 194.226"/></g></svg>